<?xml version="1.0" encoding="UTF-8"?>
<svg width="165px" height="52px" viewBox="0 0 165 52" version="1.1" xmlns="http://www.w3.org/2000/svg" xmlns:xlink="http://www.w3.org/1999/xlink">
    <title>Group</title>
    <g id="Page-1" stroke="none" stroke-width="1" fill="none" fill-rule="evenodd">
        <g id="Header" transform="translate(0.000000, 1.000000)" fill="#FFEFD9" fill-rule="nonzero">
            <g id="Group" transform="translate(0.000000, -0.500000)">
                <g id="Group-2" transform="translate(0.765625, 0.406250)">
                    <path d="M12.3566658,23.6265121 C13.2229713,23.6265121 13.9317666,23.2091104 14.4830519,22.374307 C14.640562,22.0592868 15.0185862,21.0748488 15.6171245,19.4209929 C16.2629158,17.7198841 18.3026714,12.2779108 21.7363911,3.09507308 C22.0671623,2.32327369 22.2325479,1.80349042 22.2325479,1.53572329 C22.2325479,1.12619708 22.0986643,0.779674899 21.8308972,0.496156754 C21.578881,0.165385585 21.1378528,0 20.5078125,0 L20.5078125,0 L18.3341734,0 C18.0034022,0 17.7907636,0.0236265121 17.6962576,0.0708795363 C17.2867314,0.181136593 16.9795867,0.425277218 16.7748236,0.803301411 C16.6645665,1.08681956 15.0264617,5.43409778 11.8605091,13.8451361 C11.71875,14.2861643 11.4667339,14.5066784 11.1044607,14.5066784 C10.8681956,14.5066784 10.6634325,14.3885459 10.4901714,14.1522807 L10.4901714,14.1522807 L5.78849546,1.67748236 C5.55223034,0.968686996 5.34746724,0.559160786 5.17420615,0.44890373 C4.93794103,0.149634577 4.51266381,0 3.8983745,0 L3.8983745,0 L1.67748236,0 C1.37821321,0 1.13407258,0.0315020161 0.945060484,0.0945060484 C0.315020161,0.425277218 0,0.889931956 0,1.48847026 L0,1.48847026 L0,1.58297631 C0,1.64598034 0.00787550403,1.72473538 0.0236265121,1.81924143 C0.149634577,2.24451865 0.771799395,3.9141255 1.89012097,6.828062 C2.77217742,9.20646421 4.4969128,13.8057586 7.06432712,20.6259451 C7.47385333,21.8230217 7.77312248,22.5081905 7.96213458,22.6814516 C8.51341986,23.3114919 9.14346018,23.6265121 9.85225554,23.6265121 L9.85225554,23.6265121 L12.3566658,23.6265121 Z M34.1639365,23.6265121 C36.0225554,23.6265121 37.7394153,22.9964718 39.3145161,21.7363911 C41.4251512,19.9092742 42.4804688,17.609627 42.4804688,14.8374496 L42.4804688,14.8374496 L42.4804688,9.21433972 C42.4804688,6.4421623 41.5039062,4.12676411 39.5507812,2.26814516 C37.7866683,0.756048387 35.8414189,0 33.7150328,0 C31.5728957,0 29.6670237,0.763923891 27.9974168,2.29177167 C26.2018019,4.07163558 25.3039945,6.19802167 25.3039945,8.67092994 L25.3039945,8.67092994 L25.3039945,14.672064 C25.3039945,17.5072455 26.3986895,19.8620212 28.5880796,21.7363911 C30.2261845,22.9964718 31.9666709,23.6265121 33.8095388,23.6265121 L33.8095388,23.6265121 L34.1639365,23.6265121 Z M34.14031,18.0034022 L33.8331653,18.0034022 C33.3606351,18.0034022 32.8723538,17.8616431 32.3683216,17.578125 C31.313004,16.8850806 30.7853453,15.9557712 30.7853453,14.7901966 L30.7853453,14.7901966 L30.7853453,8.57642389 C30.7853453,8.02513861 30.9428553,7.48172883 31.2578755,6.94619456 C31.9036668,6.0483871 32.7148437,5.59948337 33.6914062,5.59948337 C34.1481855,5.59948337 34.6128402,5.70974042 35.0853705,5.93025454 C36.3612021,6.60754788 36.9991179,7.68649194 36.9991179,9.16708669 L36.9991179,9.16708669 L36.9991179,14.9083291 C36.9991179,15.7746346 36.7155998,16.5070565 36.1485635,17.1055948 C35.5342742,17.7041331 34.8648564,18.0034022 34.14031,18.0034022 L34.14031,18.0034022 Z M13.4552986,49.8361895 C13.6285597,49.8361895 13.7939453,49.8046875 13.9514554,49.7416835 C14.5342427,49.4424143 14.8256363,49.0092616 14.8256363,48.4422253 L14.8256363,48.4422253 L14.8256363,33.3921371 C14.8256363,33.140121 14.8571384,32.9274824 14.9201424,32.7542213 C15.2036605,32.155683 15.6210622,31.8564138 16.1723475,31.8564138 L16.1723475,31.8564138 L19.5981918,31.8564138 C19.8344569,31.8564138 20.03922,31.8249118 20.2124811,31.7619078 C20.8110194,31.4626386 21.1102886,31.0216104 21.1102886,30.4388231 L21.1102886,30.4388231 L21.1102886,27.6272681 C21.1102886,27.5170111 21.1024131,27.4146295 21.086662,27.3201235 C20.8503969,26.5798261 20.3699912,26.2096774 19.6454448,26.2096774 L19.6454448,26.2096774 L4.52447707,26.2096774 C4.28821195,26.2096774 4.09132434,26.2490549 3.93381426,26.32781 C3.35102697,26.5798261 3.05963332,27.0759829 3.05963332,27.8162802 L3.05963332,27.8162802 L3.05963332,30.2261845 C3.05963332,30.4782006 3.08325983,30.6750882 3.13051285,30.8168473 C3.36677797,31.5098916 3.83930822,31.8564138 4.54810358,31.8564138 L4.54810358,31.8564138 L8.02120086,31.8564138 C8.13145791,31.8564138 8.28109249,31.8800403 8.47010459,31.9272933 C9.05289189,32.2265625 9.34428553,32.6597152 9.34428553,33.2267515 L9.34428553,33.2267515 L9.34428553,48.2532132 C9.34428553,48.5524824 9.39153856,48.796623 9.48604461,48.9856351 C9.76956275,49.5526714 10.179089,49.8361895 10.7146232,49.8361895 L10.7146232,49.8361895 L13.4552986,49.8361895 Z M37.8378591,49.8361895 C38.3261404,49.8361895 38.6884136,49.7101815 38.9246787,49.4581653 C39.2712009,49.2219002 39.4444619,48.765121 39.4444619,48.0878276 L39.4444619,48.0878276 L39.4444619,45.937815 C39.4444619,45.5755418 39.4050844,45.3077747 39.3263294,45.1345136 C39.0270602,44.5202243 38.5939075,44.2130796 38.0268712,44.2130796 L38.0268712,44.2130796 L30.7499055,44.2130796 C30.6869015,44.2130796 30.5845199,44.2052041 30.4427608,44.1894531 C29.9229776,43.968939 29.6630859,43.6302923 29.6630859,43.1735131 L29.6630859,43.1735131 L29.6630859,41.3542717 C29.6788369,41.1337576 29.7024635,41.015625 29.7339655,40.999874 C29.8757245,40.5115927 30.2694997,40.2674521 30.9152911,40.2674521 L30.9152911,40.2674521 L34.3175088,40.2674521 C34.5065209,40.2674521 34.6876575,40.2280746 34.8609186,40.1493196 C35.4122039,39.8342994 35.6878465,39.4090222 35.6878465,38.8734879 L35.6878465,38.8734879 L35.6878465,36.061933 C35.6878465,35.8886719 35.648469,35.7075353 35.569714,35.5185232 C35.2546938,34.9514869 34.8372921,34.6679688 34.3175088,34.6679688 L34.3175088,34.6679688 L30.9152911,34.6679688 C30.773532,34.6679688 30.6238974,34.6600932 30.4663873,34.6443422 C29.9308531,34.4238281 29.6630859,34.0851815 29.6630859,33.6284022 L29.6630859,33.6284022 L29.6630859,32.8723538 C29.6630859,32.8251008 29.6709614,32.7699723 29.6867124,32.7069682 C29.8599735,32.1241809 30.2064957,31.8327873 30.726279,31.8327873 L30.726279,31.8327873 L38.0032447,31.8327873 C38.3812689,31.8327873 38.7041646,31.6989037 38.9719317,31.4311366 C39.2869519,31.1948715 39.4444619,30.7538432 39.4444619,30.1080519 L39.4444619,30.1080519 L39.4444619,27.8871598 C39.4444619,27.5721396 39.4050844,27.3201235 39.3263294,27.1311114 C39.0270602,26.5168221 38.5781565,26.2096774 37.9796182,26.2096774 C37.9481162,26.2254284 37.9244897,26.2333039 37.9087387,26.2333039 L37.9087387,26.2333039 L25.7410849,26.2333039 C25.6780809,26.2333039 25.5599483,26.2490549 25.3866872,26.280557 C24.5833858,26.5010711 24.1817351,27.0366053 24.1817351,27.8871598 L24.1817351,27.8871598 L24.1817351,48.1823337 C24.1817351,48.4185988 24.2132371,48.6312374 24.2762412,48.8202495 C24.5440083,49.4975428 25.0637916,49.8361895 25.835591,49.8361895 L25.835591,49.8361895 L37.8378591,49.8361895 Z" id="VOTE"></path>
                    <path d="M54.6163054,49.8361895 C54.9313256,49.8361895 55.2148438,49.749559 55.4668599,49.5762979 C55.9078881,49.2455267 56.1284022,48.8360005 56.1284022,48.3477193 L56.1284022,48.3477193 L56.1284022,43.7169229 C56.1284022,43.2916457 56.2307838,42.9766255 56.4355469,42.7718624 C56.671812,42.5198463 56.9474546,42.3938382 57.2624748,42.3938382 L57.2624748,42.3938382 L59.1289693,42.3938382 C60.672568,42.3938382 62.1059098,41.968561 63.4289945,41.1180066 C64.3110509,40.5194682 65.0670993,39.7712954 65.6971396,38.8734879 C66.6106981,37.3928931 67.0674773,35.9280494 67.0674773,34.4789567 L67.0674773,34.4789567 L67.0674773,34.124559 C67.0674773,33.1322455 66.8312122,32.0848034 66.358682,30.9822329 C66.1539189,30.4939516 65.8625252,29.9820439 65.484501,29.4465096 C65.2954889,29.1314894 64.8229587,28.6274572 64.0669103,27.9344128 C62.5390625,26.7845892 60.9245842,26.2096774 59.2234753,26.2096774 L59.2234753,26.2096774 L51.781124,26.2096774 C51.3715978,26.2096774 51.0802041,26.32781 50.906943,26.5640751 C50.733682,26.8003402 50.6470514,27.2413684 50.6470514,27.8871598 L50.6470514,27.8871598 L50.6470514,48.0405746 C50.6470514,48.4658518 50.6943044,48.7572455 50.7888105,48.9147555 C51.0880796,49.5290449 51.5527344,49.8361895 52.1827747,49.8361895 L52.1827747,49.8361895 L54.6163054,49.8361895 Z M59.1998488,36.7707283 L57.2624748,36.7707283 C57.2152218,36.7707283 57.1364667,36.7628528 57.0262097,36.7471018 C56.4276714,36.5738407 56.1284022,36.140688 56.1284022,35.4476436 L56.1284022,35.4476436 L56.1284022,33.155872 C56.1284022,32.9668599 56.1441532,32.7857233 56.1756552,32.6124622 C56.3804183,32.0926789 56.7899446,31.8327873 57.4042339,31.8327873 L57.4042339,31.8327873 L58.9872102,31.8327873 C59.5542465,31.8327873 59.9873992,31.9194178 60.2866683,32.0926789 C61.1687248,32.6439642 61.609753,33.3842616 61.609753,34.3135711 C61.609753,34.7230973 61.499496,35.1326235 61.2789819,35.5421497 C60.7749496,36.3612021 60.0819052,36.7707283 59.1998488,36.7707283 L59.1998488,36.7707283 Z M74.6629284,49.8361895 C74.8204385,49.8361895 74.9779486,49.8046875 75.1354587,49.7416835 C75.78125,49.4266633 76.1041457,48.9462576 76.1041457,48.3004662 L76.1041457,48.3004662 L76.1041457,42.3465852 C76.1041457,42.1890751 76.1198967,42.0551915 76.1513987,41.9449345 C76.3719128,41.4094002 76.718435,41.1416331 77.1909652,41.1416331 L77.1909652,41.1416331 L80.734942,41.1416331 C80.8136971,41.1416331 80.9082031,41.1652596 81.0184602,41.2125126 C81.5382434,41.4487777 81.7981351,41.7952999 81.7981351,42.2520791 L81.7981351,42.2520791 L81.7981351,48.2059602 C81.7981351,48.4579763 81.8375126,48.6784904 81.9162676,48.8675025 C82.2155368,49.5132939 82.656565,49.8361895 83.2393523,49.8361895 L83.2393523,49.8361895 L85.8146421,49.8361895 C86.0509073,49.8361895 86.2714214,49.7731855 86.4761845,49.6471774 C87.0117188,49.3164062 87.2794859,48.8832535 87.2794859,48.3477193 L87.2794859,48.3477193 L87.2794859,27.7217742 C87.2794859,27.5957661 87.2479839,27.438256 87.1849798,27.249244 C86.9329637,26.5561996 86.4053049,26.2096774 85.6020035,26.2096774 L85.6020035,26.2096774 L83.4519909,26.2096774 C83.2472278,26.2096774 83.0503402,26.2333039 82.8613281,26.280557 C82.1525328,26.5640751 81.7981351,27.0917339 81.7981351,27.8635333 L81.7981351,27.8635333 L81.7981351,34.4080771 C81.7981351,34.4553301 81.7902596,34.5183342 81.7745086,34.5970892 C81.5854965,35.2113785 81.2153478,35.5185232 80.6640625,35.5185232 L80.6640625,35.5185232 L77.2618448,35.5185232 C77.1515877,35.5185232 77.0492061,35.5027722 76.9547001,35.4712702 C76.3876638,35.2822581 76.1041457,34.8884829 76.1041457,34.2899446 L76.1041457,34.2899446 L76.1041457,27.7454007 C76.1041457,27.5878906 76.0726436,27.406754 76.0096396,27.2019909 C75.7261215,26.5404486 75.1984627,26.2096774 74.4266633,26.2096774 L74.4266633,26.2096774 L72.3239037,26.2096774 C72.0246346,26.2096774 71.8041205,26.2411794 71.6623614,26.3041835 C70.969317,26.5719506 70.6227949,27.0838584 70.6227949,27.8399068 L70.6227949,27.8399068 L70.6227949,48.2059602 C70.6227949,48.4579763 70.6621724,48.6784904 70.7409274,48.8675025 C71.0401966,49.5132939 71.4812248,49.8361895 72.0640121,49.8361895 L72.0640121,49.8361895 L74.6629284,49.8361895 Z M94.4496598,49.8361895 C94.890688,49.8361895 95.2450857,49.749559 95.5128528,49.5762979 C96.0483871,49.1667717 96.3161542,48.6942414 96.3161542,48.1587072 L96.3161542,48.1587072 L96.3161542,27.9344128 C96.3161542,27.7296497 96.2689012,27.5012601 96.1743952,27.249244 C95.796371,26.5561996 95.2844632,26.2096774 94.6386719,26.2096774 L94.6386719,26.2096774 L92.5359123,26.2096774 C92.047631,26.2096774 91.6223538,26.422316 91.2600806,26.8475932 C90.9765625,27.1311114 90.8348034,27.6193926 90.8348034,28.312437 L90.8348034,28.312437 L90.8348034,47.8515625 C90.8348034,48.1508317 90.8584299,48.3870968 90.905683,48.5603579 C91.2049521,49.4109123 91.8113659,49.8361895 92.7249244,49.8361895 L92.7249244,49.8361895 L94.4496598,49.8361895 Z M101.64346,49.8361895 C107.067131,49.8219914 110.436678,49.8141925 111.752102,49.8127927 L112.110005,49.812563 C112.157258,49.812563 112.180885,49.8046875 112.180885,49.7889365 C112.511656,49.7889365 112.866053,49.6235509 113.244078,49.2927797 C113.606351,48.9620086 113.787487,48.4343498 113.787487,47.7098034 L113.787487,47.7098034 L113.787487,46.2685862 C113.787487,45.937815 113.763861,45.6779234 113.716608,45.4889113 C113.385837,44.6226058 112.787298,44.1894531 111.920993,44.1894531 L111.920993,44.1894531 L107.148438,44.1894531 C106.738911,44.1894531 106.360887,44.0398185 106.014365,43.7405494 C105.589088,43.4097782 105.376449,42.8584929 105.376449,42.0866935 L105.376449,42.0866935 L105.376449,27.9580393 C105.376449,27.8320312 105.352823,27.6666457 105.30557,27.4618826 C104.959047,26.6270791 104.37626,26.2096774 103.557208,26.2096774 L103.557208,26.2096774 L101.737966,26.2096774 C101.344191,26.2096774 100.997669,26.312059 100.6984,26.5168221 C100.178616,26.9263483 99.9187248,27.4146295 99.9187248,27.9816658 L99.9187248,27.9816658 L99.9187248,48.0642011 C99.9187248,48.3477193 99.9896043,48.6233619 100.131363,48.891129 C100.54089,49.5211694 101.044922,49.8361895 101.64346,49.8361895 Z M119.13842,49.8361895 C124.562091,49.8219914 127.931638,49.8141925 129.247061,49.8127927 L129.604965,49.812563 C129.652218,49.812563 129.675844,49.8046875 129.675844,49.7889365 C130.006615,49.7889365 130.361013,49.6235509 130.739037,49.2927797 C131.10131,48.9620086 131.282447,48.4343498 131.282447,47.7098034 L131.282447,47.7098034 L131.282447,46.2685862 C131.282447,45.937815 131.258821,45.6779234 131.211568,45.4889113 C130.880796,44.6226058 130.282258,44.1894531 129.415953,44.1894531 L129.415953,44.1894531 L124.643397,44.1894531 C124.233871,44.1894531 123.855847,44.0398185 123.509325,43.7405494 C123.084047,43.4097782 122.871409,42.8584929 122.871409,42.0866935 L122.871409,42.0866935 L122.871409,27.9580393 C122.871409,27.8320312 122.847782,27.6666457 122.800529,27.4618826 C122.454007,26.6270791 121.87122,26.2096774 121.052167,26.2096774 L121.052167,26.2096774 L119.232926,26.2096774 C118.839151,26.2096774 118.492629,26.312059 118.193359,26.5168221 C117.673576,26.9263483 117.413684,27.4146295 117.413684,27.9816658 L117.413684,27.9816658 L117.413684,48.0642011 C117.413684,48.3477193 117.484564,48.6233619 117.626323,48.891129 C118.035849,49.5211694 118.539882,49.8361895 119.13842,49.8361895 Z M143.555948,49.8361895 C144.012727,49.8361895 144.375,49.7259325 144.642767,49.5054183 C145.115297,49.1273942 145.351563,48.6784904 145.351563,48.1587072 L145.351563,48.1587072 L145.351563,37.2432586 C145.635081,36.8809854 147.974105,33.9276714 152.368637,28.3833165 C152.715159,27.9895413 152.88842,27.6351436 152.88842,27.3201235 C152.88842,27.2571195 152.880544,27.1704889 152.864793,27.0602319 C152.707283,26.4931956 152.305633,26.2096774 151.659841,26.2096774 L151.659841,26.2096774 L147.761467,26.2096774 C147.33619,26.2096774 147.029045,26.3041835 146.840033,26.4931956 L146.840033,26.4931956 L143.343309,30.8877268 C143.059791,31.328755 142.736895,31.5492692 142.374622,31.5492692 C142.138357,31.5492692 141.933594,31.4705141 141.760333,31.313004 C141.744582,31.313004 140.437248,29.7772807 137.838332,26.7058342 C137.64932,26.375063 137.287046,26.2096774 136.751512,26.2096774 L136.751512,26.2096774 L132.758632,26.2096774 C132.553868,26.2096774 132.380607,26.2333039 132.238848,26.280557 C131.766318,26.5010711 131.530053,26.8239667 131.530053,27.249244 L131.530053,27.249244 L131.530053,27.391003 C131.530053,27.5642641 131.585181,27.7454007 131.695439,27.9344128 C132.073463,28.391192 134.806263,31.6437752 139.893838,37.6921623 L139.893838,37.6921623 L139.893838,47.9696951 C139.893838,48.2217112 139.92534,48.4579763 139.988344,48.6784904 C140.303364,49.4502898 140.886152,49.8361895 141.736706,49.8361895 L141.736706,49.8361895 L143.555948,49.8361895 Z M161.452558,43.5987903 C161.704574,43.5987903 161.925088,43.5672883 162.1141,43.5042843 C162.72839,43.2207661 163.035534,42.7246094 163.035534,42.015814 L163.035534,42.015814 L163.035534,27.7926537 C163.035534,27.5406376 163.004032,27.3201235 162.941028,27.1311114 C162.626008,26.5168221 162.169229,26.2096774 161.570691,26.2096774 L161.570691,26.2096774 L159.68057,26.2096774 C159.460055,26.2096774 159.247417,26.2569304 159.042654,26.3514365 C158.507119,26.6664567 158.239352,27.0838584 158.239352,27.6036416 L158.239352,27.6036416 L158.239352,42.2048261 C158.239352,42.3465852 158.270854,42.4962198 158.333858,42.6537298 C158.601626,43.2837702 159.097782,43.5987903 159.822329,43.5987903 L159.822329,43.5987903 L161.452558,43.5987903 Z M161.547064,49.8361895 C161.736076,49.8361895 161.917213,49.8046875 162.090474,49.7416835 C162.720514,49.4739163 163.035534,48.9777596 163.035534,48.2532132 L163.035534,48.2532132 L163.035534,47.0955141 C163.035534,46.827747 162.996157,46.5993574 162.917402,46.4103453 C162.618133,45.811807 162.177104,45.5125378 161.594317,45.5125378 L161.594317,45.5125378 L159.68057,45.5125378 C159.491557,45.5125378 159.278919,45.5597908 159.042654,45.6542969 C158.507119,45.985068 158.239352,46.4103453 158.239352,46.9301285 L158.239352,46.9301285 L158.239352,48.4894783 C158.239352,48.6469884 158.286605,48.8202495 158.381111,49.0092616 C158.680381,49.5605469 159.129284,49.8361895 159.727823,49.8361895 L159.727823,49.8361895 L161.547064,49.8361895 Z" id="PHILLY!"></path>
                </g>
            </g>
        </g>
    </g>
</svg>